name E:\Dropbox\SEL\BOX\Experiment\240124_SUB1_PJH\c3d\XYZ\UpDown_TrcMot\15_10_trial1_U1_ExtLoadAPP3.mot
datacolumns 37
datarows 7
range 2.44 2.446
endheader

time	    ground_force1_vx	    ground_force1_vy	    ground_force1_vz	    ground_force1_px	    ground_force1_py	    ground_force1_pz	    ground_torque1_x	    ground_torque1_y	    ground_torque1_z	    ground_force2_vx	    ground_force2_vy	    ground_force2_vz	    ground_force2_px	    ground_force2_py	    ground_force2_pz	    ground_torque2_x	    ground_torque2_y	    ground_torque2_z	      hand_force3_vx	      hand_force3_vy	      hand_force3_vz	      hand_force3_px	      hand_force3_py	      hand_force3_pz	      hand_torque3_x	      hand_torque3_y	      hand_torque3_z	      hand_force4_vx	      hand_force4_vy	      hand_force4_vz	      hand_force4_px	      hand_force4_py	      hand_force4_pz	      hand_torque4_x	      hand_torque4_y	      hand_torque4_z	
2.44	         34.93980691	        431.66554249	          7.36342103	          0.22372772	          0.00000000	          0.26055839	          0.00000000	         -6.88910767	          0.00000000	        -39.75198519	        428.56905510	         -7.62867008	          0.58442482	          0.00000000	          0.24720976	          0.00000000	          4.27328963	          0.00000000	          0.00000000	          0.00000000	          0.00000000	          0.15310460	          0.38654509	         -0.07414477	          0.00000000	          0.00000000	          0.00000000	          0.00000000	          0.00000000	          0.00000000	          0.64833094	          0.40762834	         -0.07554740	          0.00000000	          0.00000000	          0.00000000	
2.441	         34.93565503	        431.71955572	          7.25359676	          0.22375395	          0.00000000	          0.26071562	          0.00000000	         -6.88684814	          0.00000000	        -39.70409036	        428.24028337	         -7.73576422	          0.58440461	          0.00000000	          0.24727163	          0.00000000	          4.26124119	          0.00000000	          0.00000000	          0.00000000	          0.00000000	          0.15314569	          0.38643663	         -0.07412785	          0.00000000	          0.00000000	          0.00000000	          0.00000000	          0.00000000	          0.00000000	          0.64834262	          0.40760693	         -0.07551648	          0.00000000	          0.00000000	          0.00000000	
2.442	         34.93283420	        431.77141871	          7.14268126	          0.22378001	          0.00000000	          0.26087454	          0.00000000	         -6.88471118	          0.00000000	        -39.65398076	        427.91152445	         -7.84136367	          0.58438388	          0.00000000	          0.24733371	          0.00000000	          4.24919179	          0.00000000	          0.00000000	          0.00000000	          0.00000000	          0.15318289	          0.38633149	         -0.07411073	          0.00000000	          0.00000000	          0.00000000	          0.00000000	          0.00000000	          0.00000000	          0.64835327	          0.40758810	         -0.07548590	          0.00000000	          0.00000000	          0.00000000	
2.443	         34.93134486	        431.82110899	          7.03072611	          0.22380592	          0.00000000	          0.26103509	          0.00000000	         -6.88269752	          0.00000000	        -39.60166360	        427.58294900	         -7.94547649	          0.58436262	          0.00000000	          0.24739594	          0.00000000	          4.23714314	          0.00000000	          0.00000000	          0.00000000	          0.00000000	          0.15321645	          0.38622975	         -0.07409346	          0.00000000	          0.00000000	          0.00000000	          0.00000000	          0.00000000	          0.00000000	          0.64836287	          0.40757188	         -0.07545572	          0.00000000	          0.00000000	          0.00000000	
2.444	         34.93118530	        431.86860969	          6.91778585	          0.22383165	          0.00000000	          0.26119718	          0.00000000	         -6.88080752	          0.00000000	        -39.54715210	        427.25472717	         -8.04811205	          0.58434086	          0.00000000	          0.24745826	          0.00000000	          4.22509671	          0.00000000	          0.00000000	          0.00000000	          0.00000000	          0.15324664	          0.38613146	         -0.07407613	          0.00000000	          0.00000000	          0.00000000	          0.00000000	          0.00000000	          0.00000000	          0.64837138	          0.40755828	         -0.07542600	          0.00000000	          0.00000000	          0.00000000	
2.445	         34.93235168	        431.91390949	          6.80391792	          0.22385721	          0.00000000	          0.26136073	          0.00000000	         -6.87904120	          0.00000000	        -39.49046540	        426.92702824	         -8.14928094	          0.58431859	          0.00000000	          0.24752064	          0.00000000	          4.21305374	          0.00000000	          0.00000000	          0.00000000	          0.00000000	          0.15327373	          0.38603670	         -0.07405880	          0.00000000	          0.00000000	          0.00000000	          0.00000000	          0.00000000	          0.00000000	          0.64837878	          0.40754730	         -0.07539681	          0.00000000	          0.00000000	          0.00000000	
2.446	         34.93483803	        431.95700272	          6.68918253	          0.22388258	          0.00000000	          0.26152563	          0.00000000	         -6.87739819	          0.00000000	        -39.43162838	        426.60002033	         -8.24899485	          0.58429583	          0.00000000	          0.24758300	          0.00000000	          4.20101523	          0.00000000	          0.00000000	          0.00000000	          0.00000000	          0.15329797	          0.38594555	         -0.07404153	          0.00000000	          0.00000000	          0.00000000	          0.00000000	          0.00000000	          0.00000000	          0.64838504	          0.40753895	         -0.07536818	          0.00000000	          0.00000000	          0.00000000	
